<svg id="visual" viewBox="0 0 960 540" width="960" height="540" xmlns="http://www.w3.org/2000/svg" xmlns:xlink="http://www.w3.org/1999/xlink" version="1.1"><rect x="0" y="0" width="960" height="540" fill="#001122"></rect><defs><linearGradient id="grad1_0" x1="43.8%" y1="0%" x2="100%" y2="100%"><stop offset="14.444444444444446%" stop-color="#001122" stop-opacity="1"></stop><stop offset="85.55555555555554%" stop-color="#001122" stop-opacity="1"></stop></linearGradient></defs><defs><linearGradient id="grad2_0" x1="0%" y1="0%" x2="56.3%" y2="100%"><stop offset="14.444444444444446%" stop-color="#001122" stop-opacity="1"></stop><stop offset="85.55555555555554%" stop-color="#001122" stop-opacity="1"></stop></linearGradient></defs><g transform="translate(960, 0)"><path d="M0 486C-72.9 488 -145.9 489.9 -186 449C-226.1 408.1 -233.3 324.2 -278.6 278.6C-323.9 233 -407.2 225.7 -448.1 185.6C-489 145.5 -487.5 72.8 -486 0L0 0Z" fill="#6600FF"></path></g><g transform="translate(0, 540)"><path d="M0 -486C57 -458.1 114 -430.1 167.6 -404.7C221.3 -379.2 271.6 -356.2 321.7 -321.7C371.8 -287.3 421.7 -241.5 449 -186C476.3 -130.5 481.2 -65.2 486 0L0 0Z" fill="#6600FF"></path></g></svg>