<svg id="visual" viewBox="0 0 900 600" width="900" height="600" xmlns="http://www.w3.org/2000/svg" xmlns:xlink="http://www.w3.org/1999/xlink" version="1.1"><path d="M0 55L12.5 58C25 61 50 67 75 65C100 63 125 53 150 55C175 57 200 71 225 77C250 83 275 81 300 73C325 65 350 51 375 52C400 53 425 69 450 69C475 69 500 53 525 51C550 49 575 61 600 63C625 65 650 57 675 52C700 47 725 45 750 52C775 59 800 75 825 78C850 81 875 71 887.5 66L900 61L900 0L887.5 0C875 0 850 0 825 0C800 0 775 0 750 0C725 0 700 0 675 0C650 0 625 0 600 0C575 0 550 0 525 0C500 0 475 0 450 0C425 0 400 0 375 0C350 0 325 0 300 0C275 0 250 0 225 0C200 0 175 0 150 0C125 0 100 0 75 0C50 0 25 0 12.5 0L0 0Z" fill="#6600ff"></path><path d="M0 127L12.5 128C25 129 50 131 75 131C100 131 125 129 150 139C175 149 200 171 225 174C250 177 275 161 300 159C325 157 350 169 375 171C400 173 425 165 450 157C475 149 500 141 525 138C550 135 575 137 600 133C625 129 650 119 675 120C700 121 725 133 750 141C775 149 800 153 825 147C850 141 875 125 887.5 117L900 109L900 59L887.5 64C875 69 850 79 825 76C800 73 775 57 750 50C725 43 700 45 675 50C650 55 625 63 600 61C575 59 550 47 525 49C500 51 475 67 450 67C425 67 400 51 375 50C350 49 325 63 300 71C275 79 250 81 225 75C200 69 175 55 150 53C125 51 100 61 75 63C50 65 25 59 12.5 56L0 53Z" fill="#6622fe"></path><path d="M0 205L12.5 219C25 233 50 261 75 263C100 265 125 241 150 238C175 235 200 253 225 259C250 265 275 259 300 266C325 273 350 293 375 289C400 285 425 257 450 259C475 261 500 293 525 298C550 303 575 281 600 276C625 271 650 283 675 291C700 299 725 303 750 300C775 297 800 287 825 290C850 293 875 309 887.5 317L900 325L900 107L887.5 115C875 123 850 139 825 145C800 151 775 147 750 139C725 131 700 119 675 118C650 117 625 127 600 131C575 135 550 133 525 136C500 139 475 147 450 155C425 163 400 171 375 169C350 167 325 155 300 157C275 159 250 175 225 172C200 169 175 147 150 137C125 127 100 129 75 129C50 129 25 127 12.5 126L0 125Z" fill="#6733fc"></path><path d="M0 421L12.5 435C25 449 50 477 75 472C100 467 125 429 150 415C175 401 200 411 225 416C250 421 275 421 300 426C325 431 350 441 375 444C400 447 425 443 450 438C475 433 500 427 525 427C550 427 575 433 600 436C625 439 650 439 675 435C700 431 725 423 750 431C775 439 800 463 825 471C850 479 875 471 887.5 467L900 463L900 323L887.5 315C875 307 850 291 825 288C800 285 775 295 750 298C725 301 700 297 675 289C650 281 625 269 600 274C575 279 550 301 525 296C500 291 475 259 450 257C425 255 400 283 375 287C350 291 325 271 300 264C275 257 250 263 225 257C200 251 175 233 150 236C125 239 100 263 75 261C50 259 25 231 12.5 217L0 203Z" fill="#6940fa"></path><path d="M0 481L12.5 491C25 501 50 521 75 519C100 517 125 493 150 484C175 475 200 481 225 479C250 477 275 467 300 474C325 481 350 505 375 510C400 515 425 501 450 488C475 475 500 463 525 460C550 457 575 463 600 472C625 481 650 493 675 496C700 499 725 493 750 498C775 503 800 519 825 523C850 527 875 519 887.5 515L900 511L900 461L887.5 465C875 469 850 477 825 469C800 461 775 437 750 429C725 421 700 429 675 433C650 437 625 437 600 434C575 431 550 425 525 425C500 425 475 431 450 436C425 441 400 445 375 442C350 439 325 429 300 424C275 419 250 419 225 414C200 409 175 399 150 413C125 427 100 465 75 470C50 475 25 447 12.5 433L0 419Z" fill="#6b4bf8"></path><path d="M0 559L12.5 562C25 565 50 571 75 573C100 575 125 573 150 571C175 569 200 567 225 565C250 563 275 561 300 561C325 561 350 563 375 565C400 567 425 569 450 564C475 559 500 547 525 548C550 549 575 563 600 567C625 571 650 565 675 560C700 555 725 551 750 553C775 555 800 563 825 564C850 565 875 559 887.5 556L900 553L900 509L887.5 513C875 517 850 525 825 521C800 517 775 501 750 496C725 491 700 497 675 494C650 491 625 479 600 470C575 461 550 455 525 458C500 461 475 473 450 486C425 499 400 513 375 508C350 503 325 479 300 472C275 465 250 475 225 477C200 479 175 473 150 482C125 491 100 515 75 517C50 519 25 499 12.5 489L0 479Z" fill="#6e54f5"></path><path d="M0 601L12.5 601C25 601 50 601 75 601C100 601 125 601 150 601C175 601 200 601 225 601C250 601 275 601 300 601C325 601 350 601 375 601C400 601 425 601 450 601C475 601 500 601 525 601C550 601 575 601 600 601C625 601 650 601 675 601C700 601 725 601 750 601C775 601 800 601 825 601C850 601 875 601 887.5 601L900 601L900 551L887.5 554C875 557 850 563 825 562C800 561 775 553 750 551C725 549 700 553 675 558C650 563 625 569 600 565C575 561 550 547 525 546C500 545 475 557 450 562C425 567 400 565 375 563C350 561 325 559 300 559C275 559 250 561 225 563C200 565 175 567 150 569C125 571 100 573 75 571C50 569 25 563 12.5 560L0 557Z" fill="#715df2"></path></svg>