<svg id="visual" viewBox="0 0 960 540" width="960" height="540" xmlns="http://www.w3.org/2000/svg" xmlns:xlink="http://www.w3.org/1999/xlink" version="1.1"><path d="M0 377L137 391L274 390L411 391L549 337L686 401L823 381L960 383L960 541L823 541L686 541L549 541L411 541L274 541L137 541L0 541Z" fill="#6600ff"></path><path d="M0 414L137 420L274 397L411 393L549 426L686 400L823 376L960 355L960 541L823 541L686 541L549 541L411 541L274 541L137 541L0 541Z" fill="#6b48f8"></path><path d="M0 458L137 399L274 408L411 412L549 408L686 397L823 460L960 431L960 541L823 541L686 541L549 541L411 541L274 541L137 541L0 541Z" fill="#715df2"></path><path d="M0 446L137 487L274 481L411 439L549 441L686 480L823 482L960 483L960 541L823 541L686 541L549 541L411 541L274 541L137 541L0 541Z" fill="#6b48f8"></path><path d="M0 504L137 499L274 489L411 478L549 507L686 511L823 493L960 498L960 541L823 541L686 541L549 541L411 541L274 541L137 541L0 541Z" fill="#6600ff"></path></svg>