<svg id="visual" viewBox="0 0 960 540" width="960" height="540" xmlns="http://www.w3.org/2000/svg" xmlns:xlink="http://www.w3.org/1999/xlink" version="1.1"><path d="M0 60L14.5 54.7C29 49.3 58 38.7 87.2 34.2C116.3 29.7 145.7 31.3 174.8 28.7C204 26 233 19 262 20C291 21 320 30 349 28C378 26 407 13 436.2 11.2C465.3 9.3 494.7 18.7 523.8 18.7C553 18.7 582 9.3 611 12C640 14.7 669 29.3 698 34.8C727 40.3 756 36.7 785.2 30.3C814.3 24 843.7 15 872.8 20.5C902 26 931 46 945.5 56L960 66L960 0L945.5 0C931 0 902 0 872.8 0C843.7 0 814.3 0 785.2 0C756 0 727 0 698 0C669 0 640 0 611 0C582 0 553 0 523.8 0C494.7 0 465.3 0 436.2 0C407 0 378 0 349 0C320 0 291 0 262 0C233 0 204 0 174.8 0C145.7 0 116.3 0 87.2 0C58 0 29 0 14.5 0L0 0Z" fill="#ffffff"></path><path d="M0 66L14.5 64.2C29 62.3 58 58.7 87.2 64C116.3 69.3 145.7 83.7 174.8 83.7C204 83.7 233 69.3 262 64.8C291 60.3 320 65.7 349 57.5C378 49.3 407 27.7 436.2 23.2C465.3 18.7 494.7 31.3 523.8 42.2C553 53 582 62 611 72.8C640 83.7 669 96.3 698 90C727 83.7 756 58.3 785.2 42.2C814.3 26 843.7 19 872.8 24.5C902 30 931 48 945.5 57L960 66L960 64L945.5 54C931 44 902 24 872.8 18.5C843.7 13 814.3 22 785.2 28.3C756 34.7 727 38.3 698 33.2C669 28 640 14 611 11.3C582 8.7 553 17.3 523.8 17.3C494.7 17.3 465.3 8.7 436.2 10.5C407 12.3 378 24.7 349 26.3C320 28 291 19 262 18C233 17 204 24 174.8 26.7C145.7 29.3 116.3 27.7 87.2 32.2C58 36.7 29 47.3 14.5 52.7L0 58Z" fill="#d3d2ff"></path><path d="M0 163L14.5 165.7C29 168.3 58 173.7 87.2 167.3C116.3 161 145.7 143 174.8 137.7C204 132.3 233 139.7 262 134.3C291 129 320 111 349 99.3C378 87.7 407 82.3 436.2 91.3C465.3 100.3 494.7 123.7 523.8 131.7C553 139.7 582 132.3 611 135C640 137.7 669 150.3 698 147.7C727 145 756 127 785.2 108.2C814.3 89.3 843.7 69.7 872.8 83.2C902 96.7 931 143.3 945.5 166.7L960 190L960 64L945.5 55C931 46 902 28 872.8 22.5C843.7 17 814.3 24 785.2 40.2C756 56.3 727 81.7 698 88C669 94.3 640 81.7 611 70.8C582 60 553 51 523.8 40.2C494.7 29.3 465.3 16.7 436.2 21.2C407 25.7 378 47.3 349 55.5C320 63.7 291 58.3 262 62.8C233 67.3 204 81.7 174.8 81.7C145.7 81.7 116.3 67.3 87.2 62C58 56.7 29 60.3 14.5 62.2L0 64Z" fill="#a1a6ff"></path><path d="M0 185L14.5 184C29 183 58 181 87.2 182.7C116.3 184.3 145.7 189.7 174.8 194.2C204 198.7 233 202.3 262 188.8C291 175.3 320 144.7 349 141.2C378 137.7 407 161.3 436.2 187.5C465.3 213.7 494.7 242.3 523.8 246.8C553 251.3 582 231.7 611 229.8C640 228 669 244 698 229.5C727 215 756 170 785.2 148.5C814.3 127 843.7 129 872.8 157.8C902 186.7 931 242.3 945.5 270.2L960 298L960 188L945.5 164.7C931 141.3 902 94.7 872.8 81.2C843.7 67.7 814.3 87.3 785.2 106.2C756 125 727 143 698 145.7C669 148.3 640 135.7 611 133C582 130.3 553 137.7 523.8 129.7C494.7 121.7 465.3 98.3 436.2 89.3C407 80.3 378 85.7 349 97.3C320 109 291 127 262 132.3C233 137.7 204 130.3 174.8 135.7C145.7 141 116.3 159 87.2 165.3C58 171.7 29 166.3 14.5 163.7L0 161Z" fill="#617dff"></path><path d="M0 379L14.5 350.2C29 321.3 58 263.7 87.2 254.7C116.3 245.7 145.7 285.3 174.8 303.3C204 321.3 233 317.7 262 321.3C291 325 320 336 349 317.2C378 298.3 407 249.7 436.2 257.7C465.3 265.7 494.7 330.3 523.8 359.2C553 388 582 381 611 367.5C640 354 669 334 698 309.7C727 285.3 756 256.7 785.2 240.5C814.3 224.3 843.7 220.7 872.8 233.2C902 245.7 931 274.3 945.5 288.7L960 303L960 296L945.5 268.2C931 240.3 902 184.7 872.8 155.8C843.7 127 814.3 125 785.2 146.5C756 168 727 213 698 227.5C669 242 640 226 611 227.8C582 229.7 553 249.3 523.8 244.8C494.7 240.3 465.3 211.7 436.2 185.5C407 159.3 378 135.7 349 139.2C320 142.7 291 173.3 262 186.8C233 200.3 204 196.7 174.8 192.2C145.7 187.7 116.3 182.3 87.2 180.7C58 179 29 181 14.5 182L0 183Z" fill="#0066ff"></path><path d="M0 417L14.5 389C29 361 58 305 87.2 292.3C116.3 279.7 145.7 310.3 174.8 322.2C204 334 233 327 262 329.7C291 332.3 320 344.7 349 332.8C378 321 407 285 436.2 295.8C465.3 306.7 494.7 364.3 523.8 386C553 407.7 582 393.3 611 379.8C640 366.3 669 353.7 698 333.8C727 314 756 287 785.2 273.5C814.3 260 843.7 260 872.8 270C902 280 931 300 945.5 310L960 320L960 301L945.5 286.7C931 272.3 902 243.7 872.8 231.2C843.7 218.7 814.3 222.3 785.2 238.5C756 254.7 727 283.3 698 307.7C669 332 640 352 611 365.5C582 379 553 386 523.8 357.2C494.7 328.3 465.3 263.7 436.2 255.7C407 247.7 378 296.3 349 315.2C320 334 291 323 262 319.3C233 315.7 204 319.3 174.8 301.3C145.7 283.3 116.3 243.7 87.2 252.7C58 261.7 29 319.3 14.5 348.2L0 377Z" fill="#0066ff"></path><path d="M0 438L14.5 410.2C29 382.3 58 326.7 87.2 321.3C116.3 316 145.7 361 174.8 378.2C204 395.3 233 384.7 262 382.8C291 381 320 388 349 378C378 368 407 341 436.2 350C465.3 359 494.7 404 523.8 423.8C553 443.7 582 438.3 611 422.2C640 406 669 379 698 352C727 325 756 298 785.2 294.3C814.3 290.7 843.7 310.3 872.8 321.2C902 332 931 334 945.5 335L960 336L960 318L945.5 308C931 298 902 278 872.8 268C843.7 258 814.3 258 785.2 271.5C756 285 727 312 698 331.8C669 351.7 640 364.3 611 377.8C582 391.3 553 405.7 523.8 384C494.7 362.3 465.3 304.7 436.2 293.8C407 283 378 319 349 330.8C320 342.7 291 330.3 262 327.7C233 325 204 332 174.8 320.2C145.7 308.3 116.3 277.7 87.2 290.3C58 303 29 359 14.5 387L0 415Z" fill="#617dff"></path><path d="M0 503L14.5 466.2C29 429.3 58 355.7 87.2 339.5C116.3 323.3 145.7 364.7 174.8 385.3C204 406 233 406 262 409.7C291 413.3 320 420.7 349 410.8C378 401 407 374 436.2 378.5C465.3 383 494.7 419 523.8 437.8C553 456.7 582 458.3 611 444.8C640 431.3 669 402.7 698 387.3C727 372 756 370 785.2 369C814.3 368 843.7 368 872.8 365.3C902 362.7 931 357.3 945.5 354.7L960 352L960 334L945.5 333C931 332 902 330 872.8 319.2C843.7 308.3 814.3 288.7 785.2 292.3C756 296 727 323 698 350C669 377 640 404 611 420.2C582 436.3 553 441.7 523.8 421.8C494.7 402 465.3 357 436.2 348C407 339 378 366 349 376C320 386 291 379 262 380.8C233 382.7 204 393.3 174.8 376.2C145.7 359 116.3 314 87.2 319.3C58 324.7 29 380.3 14.5 408.2L0 436Z" fill="#a1a6ff"></path><path d="M0 503L14.5 503C29 503 58 503 87.2 504C116.3 505 145.7 507 174.8 505.2C204 503.3 233 497.7 262 499.3C291 501 320 510 349 511.8C378 513.7 407 508.3 436.2 506.7C465.3 505 494.7 507 523.8 513.3C553 519.7 582 530.3 611 535.7C640 541 669 541 698 532.8C727 524.7 756 508.3 785.2 499.3C814.3 490.3 843.7 488.7 872.8 493.2C902 497.7 931 508.3 945.5 513.7L960 519L960 350L945.5 352.7C931 355.3 902 360.7 872.8 363.3C843.7 366 814.3 366 785.2 367C756 368 727 370 698 385.3C669 400.7 640 429.3 611 442.8C582 456.3 553 454.7 523.8 435.8C494.7 417 465.3 381 436.2 376.5C407 372 378 399 349 408.8C320 418.7 291 411.3 262 407.7C233 404 204 404 174.8 383.3C145.7 362.7 116.3 321.3 87.2 337.5C58 353.7 29 427.3 14.5 464.2L0 501Z" fill="#d3d2ff"></path><path d="M0 541L14.5 541C29 541 58 541 87.2 541C116.3 541 145.7 541 174.8 541C204 541 233 541 262 541C291 541 320 541 349 541C378 541 407 541 436.2 541C465.3 541 494.7 541 523.8 541C553 541 582 541 611 541C640 541 669 541 698 541C727 541 756 541 785.2 541C814.3 541 843.7 541 872.8 541C902 541 931 541 945.5 541L960 541L960 517L945.5 511.7C931 506.3 902 495.7 872.8 491.2C843.7 486.7 814.3 488.3 785.2 497.3C756 506.3 727 522.7 698 530.8C669 539 640 539 611 533.7C582 528.3 553 517.7 523.8 511.3C494.7 505 465.3 503 436.2 504.7C407 506.3 378 511.7 349 509.8C320 508 291 499 262 497.3C233 495.7 204 501.3 174.8 503.2C145.7 505 116.3 503 87.2 502C58 501 29 501 14.5 501L0 501Z" fill="#ffffff"></path></svg>