<svg id="visual" viewBox="0 0 960 540" width="960" height="540" xmlns="http://www.w3.org/2000/svg" xmlns:xlink="http://www.w3.org/1999/xlink" version="1.1"><rect x="0" y="0" width="960" height="540" fill="#6d6961"></rect><defs><linearGradient id="grad1_0" x1="43.8%" y1="0%" x2="100%" y2="100%"><stop offset="14.444444444444446%" stop-color="#dad1c1" stop-opacity="1"></stop><stop offset="85.55555555555554%" stop-color="#dad1c1" stop-opacity="1"></stop></linearGradient></defs><defs><linearGradient id="grad1_1" x1="43.8%" y1="0%" x2="100%" y2="100%"><stop offset="14.444444444444446%" stop-color="#dad1c1" stop-opacity="1"></stop><stop offset="85.55555555555554%" stop-color="#cac1b3" stop-opacity="1"></stop></linearGradient></defs><defs><linearGradient id="grad1_2" x1="43.8%" y1="0%" x2="100%" y2="100%"><stop offset="14.444444444444446%" stop-color="#b9b2a4" stop-opacity="1"></stop><stop offset="85.55555555555554%" stop-color="#cac1b3" stop-opacity="1"></stop></linearGradient></defs><defs><linearGradient id="grad1_3" x1="43.8%" y1="0%" x2="100%" y2="100%"><stop offset="14.444444444444446%" stop-color="#b9b2a4" stop-opacity="1"></stop><stop offset="85.55555555555554%" stop-color="#aaa396" stop-opacity="1"></stop></linearGradient></defs><defs><linearGradient id="grad1_4" x1="43.8%" y1="0%" x2="100%" y2="100%"><stop offset="14.444444444444446%" stop-color="#9a9489" stop-opacity="1"></stop><stop offset="85.55555555555554%" stop-color="#aaa396" stop-opacity="1"></stop></linearGradient></defs><defs><linearGradient id="grad1_5" x1="43.8%" y1="0%" x2="100%" y2="100%"><stop offset="14.444444444444446%" stop-color="#9a9489" stop-opacity="1"></stop><stop offset="85.55555555555554%" stop-color="#8b857b" stop-opacity="1"></stop></linearGradient></defs><defs><linearGradient id="grad1_6" x1="43.8%" y1="0%" x2="100%" y2="100%"><stop offset="14.444444444444446%" stop-color="#7c776e" stop-opacity="1"></stop><stop offset="85.55555555555554%" stop-color="#8b857b" stop-opacity="1"></stop></linearGradient></defs><defs><linearGradient id="grad1_7" x1="43.8%" y1="0%" x2="100%" y2="100%"><stop offset="14.444444444444446%" stop-color="#7c776e" stop-opacity="1"></stop><stop offset="85.55555555555554%" stop-color="#6d6961" stop-opacity="1"></stop></linearGradient></defs><defs><linearGradient id="grad2_0" x1="0%" y1="0%" x2="56.3%" y2="100%"><stop offset="14.444444444444446%" stop-color="#dad1c1" stop-opacity="1"></stop><stop offset="85.55555555555554%" stop-color="#dad1c1" stop-opacity="1"></stop></linearGradient></defs><defs><linearGradient id="grad2_1" x1="0%" y1="0%" x2="56.3%" y2="100%"><stop offset="14.444444444444446%" stop-color="#cac1b3" stop-opacity="1"></stop><stop offset="85.55555555555554%" stop-color="#dad1c1" stop-opacity="1"></stop></linearGradient></defs><defs><linearGradient id="grad2_2" x1="0%" y1="0%" x2="56.3%" y2="100%"><stop offset="14.444444444444446%" stop-color="#cac1b3" stop-opacity="1"></stop><stop offset="85.55555555555554%" stop-color="#b9b2a4" stop-opacity="1"></stop></linearGradient></defs><defs><linearGradient id="grad2_3" x1="0%" y1="0%" x2="56.3%" y2="100%"><stop offset="14.444444444444446%" stop-color="#aaa396" stop-opacity="1"></stop><stop offset="85.55555555555554%" stop-color="#b9b2a4" stop-opacity="1"></stop></linearGradient></defs><defs><linearGradient id="grad2_4" x1="0%" y1="0%" x2="56.3%" y2="100%"><stop offset="14.444444444444446%" stop-color="#aaa396" stop-opacity="1"></stop><stop offset="85.55555555555554%" stop-color="#9a9489" stop-opacity="1"></stop></linearGradient></defs><defs><linearGradient id="grad2_5" x1="0%" y1="0%" x2="56.3%" y2="100%"><stop offset="14.444444444444446%" stop-color="#8b857b" stop-opacity="1"></stop><stop offset="85.55555555555554%" stop-color="#9a9489" stop-opacity="1"></stop></linearGradient></defs><defs><linearGradient id="grad2_6" x1="0%" y1="0%" x2="56.3%" y2="100%"><stop offset="14.444444444444446%" stop-color="#8b857b" stop-opacity="1"></stop><stop offset="85.55555555555554%" stop-color="#7c776e" stop-opacity="1"></stop></linearGradient></defs><defs><linearGradient id="grad2_7" x1="0%" y1="0%" x2="56.3%" y2="100%"><stop offset="14.444444444444446%" stop-color="#6d6961" stop-opacity="1"></stop><stop offset="85.55555555555554%" stop-color="#7c776e" stop-opacity="1"></stop></linearGradient></defs><g transform="translate(960, 0)"><path d="M0 486C-81.1 467.3 -162.2 448.7 -237 410.5C-311.8 372.3 -380.4 314.7 -420.9 243C-461.3 171.3 -473.7 85.7 -486 0L0 0Z" fill="#747067"></path><path d="M0 425.3C-70.9 408.9 -141.9 392.6 -207.4 359.2C-272.9 325.8 -332.9 275.3 -368.3 212.6C-403.7 149.9 -414.5 75 -425.2 0L0 0Z" fill="#837e75"></path><path d="M0 364.5C-60.8 350.5 -121.6 336.5 -177.7 307.9C-233.9 279.2 -285.3 236 -315.7 182.3C-346 128.5 -355.3 64.3 -364.5 0L0 0Z" fill="#928d82"></path><path d="M0 303.8C-50.7 292.1 -101.4 280.4 -148.1 256.6C-194.9 232.7 -237.8 196.7 -263.1 151.9C-288.3 107.1 -296 53.5 -303.7 0L0 0Z" fill="#a29b90"></path><path d="M0 243C-40.5 233.7 -81.1 224.3 -118.5 205.2C-155.9 186.2 -190.2 157.3 -210.4 121.5C-230.7 85.7 -236.8 42.8 -243 0L0 0Z" fill="#b1aa9d"></path><path d="M0 182.3C-30.4 175.2 -60.8 168.2 -88.9 153.9C-116.9 139.6 -142.7 118 -157.8 91.1C-173 64.3 -177.6 32.1 -182.2 0L0 0Z" fill="#c1baab"></path><path d="M0 121.5C-20.3 116.8 -40.5 112.2 -59.2 102.6C-78 93.1 -95.1 78.7 -105.2 60.8C-115.3 42.8 -118.4 21.4 -121.5 0L0 0Z" fill="#d2c9ba"></path><path d="M0 60.8C-10.1 58.4 -20.3 56.1 -29.6 51.3C-39 46.5 -47.6 39.3 -52.6 30.4C-57.7 21.4 -59.2 10.7 -60.7 0L0 0Z" fill="#dad1c1"></path></g><g transform="translate(0, 540)"><path d="M0 -486C88 -475 176 -464 243 -420.9C310 -377.8 356.2 -302.5 393.2 -227C430.2 -151.5 458.1 -75.7 486 0L0 0Z" fill="#747067"></path><path d="M0 -425.2C77 -415.6 154 -406 212.6 -368.3C271.3 -330.5 311.6 -264.7 344 -198.6C376.4 -132.6 400.8 -66.3 425.3 0L0 0Z" fill="#837e75"></path><path d="M0 -364.5C66 -356.3 132 -348 182.2 -315.7C232.5 -283.3 267.1 -226.9 294.9 -170.3C322.6 -113.6 343.6 -56.8 364.5 0L0 0Z" fill="#928d82"></path><path d="M0 -303.7C55 -296.9 110 -290 151.9 -263.1C193.8 -236.1 222.6 -189.1 245.7 -141.9C268.9 -94.7 286.3 -47.3 303.8 0L0 0Z" fill="#a29b90"></path><path d="M0 -243C44 -237.5 88 -232 121.5 -210.4C155 -188.9 178.1 -151.3 196.6 -113.5C215.1 -75.7 229 -37.9 243 0L0 0Z" fill="#b1aa9d"></path><path d="M0 -182.2C33 -178.1 66 -174 91.1 -157.8C116.3 -141.7 133.6 -113.4 147.4 -85.1C161.3 -56.8 171.8 -28.4 182.3 0L0 0Z" fill="#c1baab"></path><path d="M0 -121.5C22 -118.8 44 -116 60.7 -105.2C77.5 -94.4 89 -75.6 98.3 -56.8C107.5 -37.9 114.5 -18.9 121.5 0L0 0Z" fill="#d2c9ba"></path><path d="M0 -60.7C11 -59.4 22 -58 30.4 -52.6C38.8 -47.2 44.5 -37.8 49.1 -28.4C53.8 -18.9 57.3 -9.5 60.8 0L0 0Z" fill="#dad1c1"></path></g></svg>