<svg id="visual" viewBox="0 0 960 540" width="960" height="540" xmlns="http://www.w3.org/2000/svg" xmlns:xlink="http://www.w3.org/1999/xlink" version="1.1"><path d="M0 33L32 32.2C64 31.3 128 29.7 192 28.8C256 28 320 28 384 27.2C448 26.3 512 24.7 576 25.5C640 26.3 704 29.7 768 30.5C832 31.3 896 29.7 928 28.8L960 28L960 0L928 0C896 0 832 0 768 0C704 0 640 0 576 0C512 0 448 0 384 0C320 0 256 0 192 0C128 0 64 0 32 0L0 0Z" fill="#000000"></path><path d="M0 55L32 55C64 55 128 55 192 54.2C256 53.3 320 51.7 384 49C448 46.3 512 42.7 576 44.3C640 46 704 53 768 55.7C832 58.3 896 56.7 928 55.8L960 55L960 26L928 26.8C896 27.7 832 29.3 768 28.5C704 27.7 640 24.3 576 23.5C512 22.7 448 24.3 384 25.2C320 26 256 26 192 26.8C128 27.7 64 29.3 32 30.2L0 31Z" fill="#272219"></path><path d="M0 93L32 97.5C64 102 128 111 192 115.5C256 120 320 120 384 117.3C448 114.7 512 109.3 576 108.3C640 107.3 704 110.7 768 110.7C832 110.7 896 107.3 928 105.7L960 104L960 53L928 53.8C896 54.7 832 56.3 768 53.7C704 51 640 44 576 42.3C512 40.7 448 44.3 384 47C320 49.7 256 51.3 192 52.2C128 53 64 53 32 53L0 53Z" fill="#454035"></path><path d="M0 168L32 182.5C64 197 128 226 192 237.8C256 249.7 320 244.3 384 229.8C448 215.3 512 191.7 576 192.5C640 193.3 704 218.7 768 223.2C832 227.7 896 211.3 928 203.2L960 195L960 102L928 103.7C896 105.3 832 108.7 768 108.7C704 108.7 640 105.3 576 106.3C512 107.3 448 112.7 384 115.3C320 118 256 118 192 113.5C128 109 64 100 32 95.5L0 91Z" fill="#655f54"></path><path d="M0 314L32 318.5C64 323 128 332 192 331.2C256 330.3 320 319.7 384 316.2C448 312.7 512 316.3 576 318.2C640 320 704 320 768 320.8C832 321.7 896 323.3 928 324.2L960 325L960 193L928 201.2C896 209.3 832 225.7 768 221.2C704 216.7 640 191.3 576 190.5C512 189.7 448 213.3 384 227.8C320 242.3 256 247.7 192 235.8C128 224 64 195 32 180.5L0 166Z" fill="#878175"></path><path d="M0 341L32 344.7C64 348.3 128 355.7 192 353.8C256 352 320 341 384 338.3C448 335.7 512 341.3 576 344.2C640 347 704 347 768 347C832 347 896 347 928 347L960 347L960 323L928 322.2C896 321.3 832 319.7 768 318.8C704 318 640 318 576 316.2C512 314.3 448 310.7 384 314.2C320 317.7 256 328.3 192 329.2C128 330 64 321 32 316.5L0 312Z" fill="#958f83"></path><path d="M0 363L32 366.5C64 370 128 377 192 375.2C256 373.3 320 362.7 384 359.2C448 355.7 512 359.3 576 363C640 366.7 704 370.3 768 372.2C832 374 896 374 928 374L960 374L960 345L928 345C896 345 832 345 768 345C704 345 640 345 576 342.2C512 339.3 448 333.7 384 336.3C320 339 256 350 192 351.8C128 353.7 64 346.3 32 342.7L0 339Z" fill="#958f83"></path><path d="M0 395L32 397.7C64 400.3 128 405.7 192 403.8C256 402 320 393 384 389.5C448 386 512 388 576 393.5C640 399 704 408 768 409.8C832 411.7 896 406.3 928 403.7L960 401L960 372L928 372C896 372 832 372 768 370.2C704 368.3 640 364.7 576 361C512 357.3 448 353.7 384 357.2C320 360.7 256 371.3 192 373.2C128 375 64 368 32 364.5L0 361Z" fill="#878175"></path><path d="M0 428L32 430.7C64 433.3 128 438.7 192 434.2C256 429.7 320 415.3 384 409C448 402.7 512 404.3 576 409.7C640 415 704 424 768 425.8C832 427.7 896 422.3 928 419.7L960 417L960 399L928 401.7C896 404.3 832 409.7 768 407.8C704 406 640 397 576 391.5C512 386 448 384 384 387.5C320 391 256 400 192 401.8C128 403.7 64 398.3 32 395.7L0 393Z" fill="#655f54"></path><path d="M0 444L32 449.3C64 454.7 128 465.3 192 464.3C256 463.3 320 450.7 384 444.3C448 438 512 438 576 442.5C640 447 704 456 768 457C832 458 896 451 928 447.5L960 444L960 415L928 417.7C896 420.3 832 425.7 768 423.8C704 422 640 413 576 407.7C512 402.3 448 400.7 384 407C320 413.3 256 427.7 192 432.2C128 436.7 64 431.3 32 428.7L0 426Z" fill="#454035"></path><path d="M0 476L32 481.5C64 487 128 498 192 500.7C256 503.3 320 497.7 384 494C448 490.3 512 488.7 576 491.5C640 494.3 704 501.7 768 499.8C832 498 896 487 928 481.5L960 476L960 442L928 445.5C896 449 832 456 768 455C704 454 640 445 576 440.5C512 436 448 436 384 442.3C320 448.7 256 461.3 192 462.3C128 463.3 64 452.7 32 447.3L0 442Z" fill="#272219"></path><path d="M0 541L32 541C64 541 128 541 192 541C256 541 320 541 384 541C448 541 512 541 576 541C640 541 704 541 768 541C832 541 896 541 928 541L960 541L960 474L928 479.5C896 485 832 496 768 497.8C704 499.7 640 492.3 576 489.5C512 486.7 448 488.3 384 492C320 495.7 256 501.3 192 498.7C128 496 64 485 32 479.5L0 474Z" fill="#000000"></path></svg>