<svg id="visual" viewBox="0 0 960 540" width="960" height="540" xmlns="http://www.w3.org/2000/svg" xmlns:xlink="http://www.w3.org/1999/xlink" version="1.1"><path d="M0 50L137 93L274 71L411 55L549 77L686 66L823 87L960 87L960 0L823 0L686 0L549 0L411 0L274 0L137 0L0 0Z" fill="#736e65"></path><path d="M0 131L137 158L274 131L411 131L549 120L686 136L823 158L960 163L960 85L823 85L686 64L549 75L411 53L274 69L137 91L0 48Z" fill="#7b766c"></path><path d="M0 206L137 260L274 201L411 206L549 228L686 260L823 260L960 249L960 161L823 156L686 134L549 118L411 129L274 129L137 156L0 129Z" fill="#837e74"></path><path d="M0 417L137 433L274 320L411 406L549 374L686 395L823 390L960 379L960 247L823 258L686 258L549 226L411 204L274 199L137 258L0 204Z" fill="#8b867c"></path><path d="M0 541L137 541L274 541L411 541L549 541L686 541L823 541L960 541L960 377L823 388L686 393L549 372L411 404L274 318L137 431L0 415Z" fill="#948e84"></path></svg>